<svg width="48" height="48" viewBox="0 0 48 48" fill="none" xmlns="http://www.w3.org/2000/svg">
<path fill-rule="evenodd" clip-rule="evenodd" d="M34.0215 29.2023C34.8495 29.2023 35.5215 28.5303 35.5215 27.7023V23.9983C35.5215 23.1703 34.8495 22.4983 34.0215 22.4983H22.6375C21.9895 20.3643 20.0255 18.7963 17.6815 18.7963C14.8135 18.7963 12.4795 21.1303 12.4795 23.9983C12.4795 26.8683 14.8135 29.2023 17.6815 29.2023C20.0255 29.2023 21.9895 27.6343 22.6375 25.4983H26.8615V27.7023C26.8615 28.5303 27.5335 29.2023 28.3615 29.2023C29.1895 29.2023 29.8615 28.5303 29.8615 27.7023V25.4983H32.5215V27.7023C32.5215 28.5303 33.1935 29.2023 34.0215 29.2023ZM15.3315 3.99829H32.6695C39.4455 3.99829 43.9995 8.75429 43.9995 15.8323V32.1663C43.9995 39.2443 39.4455 43.9983 32.6675 43.9983H15.3315C8.55351 43.9983 3.99951 39.2443 3.99951 32.1663V15.8323C3.99951 8.75429 8.55351 3.99829 15.3315 3.99829ZM15.4777 24.0001C15.4777 22.7841 16.4677 21.7961 17.6817 21.7961C18.8957 21.7961 19.8857 22.7841 19.8857 24.0001C19.8857 25.2141 18.8957 26.2021 17.6817 26.2021C16.4677 26.2021 15.4777 25.2141 15.4777 24.0001Z" fill="#2D2D2D"/>
</svg>
